<?xml version="1.0" standalone="no"?>
<!DOCTYPE svg PUBLIC "-//W3C//DTD SVG 20010904//EN"
 "http://www.w3.org/TR/2001/REC-SVG-20010904/DTD/svg10.dtd">
<svg version="1.0" xmlns="http://www.w3.org/2000/svg"
 width="500.000000pt" height="500.000000pt" viewBox="0 0 500.000000 500.000000"
 preserveAspectRatio="xMidYMid meet">
<metadata>
Created by potrace 1.14, written by Peter Selinger 2001-2017
</metadata>
<g transform="translate(0.000000,500.000000) scale(0.100000,-0.100000)"
fill="#000000" stroke="none">
<path d="M2317 4183 c-10 -3 -14 -9 -10 -16 4 -8 1 -7 -9 1 -10 8 -18 9 -22 3
-4 -6 -14 -7 -22 -4 -9 3 -19 1 -23 -5 -3 -5 -15 -12 -26 -14 -11 -1 -26 -10
-33 -18 -12 -13 -13 -13 -6 0 4 8 -4 5 -18 -7 -13 -13 -29 -23 -35 -23 -6 0
-13 -3 -15 -8 -1 -4 -23 -23 -48 -42 -25 -19 -52 -43 -60 -53 -8 -10 -25 -29
-36 -41 -12 -13 -25 -33 -29 -44 -3 -12 -11 -20 -16 -16 -5 3 -9 2 -8 -3 3
-20 -2 -34 -11 -28 -6 4 -9 3 -8 -2 1 -4 -3 -18 -10 -29 -6 -12 -8 -24 -5 -28
3 -3 1 -6 -5 -6 -7 0 -12 -9 -12 -21 0 -11 -4 -18 -9 -15 -8 6 -21 -39 -22
-76 0 -10 -4 -18 -10 -18 -5 0 -9 -13 -9 -29 0 -17 -5 -33 -10 -36 -8 -5 -7
-11 1 -21 6 -8 7 -14 2 -14 -6 0 -11 -31 -11 -70 0 -47 3 -70 11 -70 7 0 6 -4
-3 -10 -12 -8 -12 -10 -1 -10 8 0 12 -3 8 -6 -3 -3 1 -23 8 -44 7 -21 11 -41
8 -44 -4 -3 -1 -6 5 -6 7 0 12 -7 12 -15 0 -8 3 -15 8 -15 4 0 13 -9 20 -21 8
-12 10 -19 5 -16 -5 3 -22 -11 -39 -31 -16 -20 -44 -51 -62 -70 -18 -19 -30
-38 -26 -45 4 -7 4 -9 -1 -5 -8 8 -42 -29 -43 -47 0 -5 -9 -12 -19 -16 -10 -3
-18 -10 -18 -15 0 -5 -12 -25 -28 -45 -15 -20 -27 -41 -27 -48 0 -7 -4 -10 -8
-7 -4 3 -16 -11 -27 -30 -10 -19 -22 -34 -27 -34 -4 0 -8 -3 -7 -7 3 -18 -14
-52 -22 -47 -5 3 -9 -2 -9 -10 0 -9 -5 -16 -12 -16 -6 0 -9 -3 -5 -6 3 -4 -1
-13 -9 -21 -8 -8 -12 -19 -9 -24 4 -5 3 -9 -2 -9 -4 0 -21 -26 -38 -58 -16
-31 -35 -63 -42 -70 -7 -7 -13 -22 -13 -32 0 -10 -7 -21 -16 -24 -9 -4 -14 -9
-11 -13 4 -3 0 -15 -8 -27 -8 -11 -15 -29 -15 -39 0 -10 -4 -15 -10 -12 -5 3
-10 -3 -10 -14 0 -12 -5 -21 -12 -21 -6 0 -8 -3 -5 -7 4 -3 1 -13 -7 -22 -8
-9 -15 -18 -15 -21 0 -9 -12 -44 -26 -75 -22 -52 -36 -91 -34 -101 3 -19 -1
-35 -9 -30 -4 2 -9 -9 -10 -26 -1 -17 -6 -47 -10 -67 -17 -84 -1 -272 29 -346
7 -16 12 -39 12 -50 1 -11 7 -24 14 -28 7 -5 11 -12 8 -18 -4 -5 -1 -9 4 -9 6
0 11 -11 11 -23 0 -13 9 -32 20 -42 11 -10 18 -20 15 -23 -2 -3 5 -13 17 -23
11 -11 17 -19 13 -19 -4 0 8 -16 28 -35 21 -20 37 -40 37 -44 0 -5 11 -12 25
-15 14 -4 23 -11 20 -16 -3 -6 -1 -10 5 -10 10 0 19 -6 59 -40 10 -8 23 -16
30 -18 7 -1 19 -9 27 -17 8 -7 23 -17 34 -20 21 -7 28 -35 9 -35 -5 0 -7 -4
-4 -10 3 -5 -2 -10 -12 -10 -11 0 -25 -6 -32 -12 -8 -7 -11 -8 -8 -2 3 6 0 11
-8 11 -8 0 -12 -4 -8 -9 3 -6 -3 -8 -13 -7 -30 5 -97 -22 -121 -48 -13 -13
-23 -21 -23 -18 0 9 -42 -32 -43 -42 0 -4 -11 -16 -24 -26 -13 -10 -23 -27
-23 -38 0 -11 -4 -18 -8 -15 -5 3 -9 0 -9 -7 0 -7 -4 -25 -8 -42 -4 -16 -8
-41 -8 -55 -1 -14 -9 -31 -17 -38 -8 -8 -10 -11 -4 -8 7 3 15 -1 18 -10 4 -10
2 -13 -6 -8 -8 5 -9 2 -5 -9 3 -9 1 -19 -5 -23 -7 -5 -6 -11 5 -19 10 -7 15
-21 12 -33 -2 -12 -1 -22 3 -22 4 0 8 -9 9 -19 1 -11 12 -32 25 -47 42 -50 88
-96 88 -88 0 4 4 4 9 -1 5 -6 11 -32 12 -60 2 -27 8 -53 13 -57 7 -5 7 -8 -1
-8 -7 0 -13 -5 -13 -11 0 -5 6 -7 13 -3 9 6 9 5 0 -7 -13 -16 -12 -36 1 -58 6
-9 5 -12 -1 -8 -6 4 -10 -15 -11 -46 -1 -29 -4 -63 -8 -77 -3 -14 -6 -35 -7
-47 -1 -13 -5 -23 -9 -23 -4 0 -8 -11 -8 -24 0 -14 -4 -27 -9 -30 -5 -3 -12
-22 -15 -41 -4 -20 -14 -39 -21 -42 -8 -3 -12 -9 -9 -14 3 -5 460 -9 1103 -9
948 0 1098 2 1098 15 0 8 -5 11 -11 8 -6 -3 -5 0 2 8 15 16 16 33 0 23 -7 -4
-8 -3 -4 5 15 23 16 63 4 79 -11 13 -11 14 0 8 10 -6 12 -1 9 22 -3 17 -8 35
-11 41 -4 5 -1 13 6 17 7 4 10 3 6 -1 -5 -5 3 -27 16 -49 13 -23 21 -47 19
-53 -3 -7 0 -13 6 -13 6 0 11 -7 11 -15 0 -16 25 -60 47 -83 9 -9 57 -12 196
-10 l184 3 -21 45 c-12 25 -27 44 -34 43 -6 -2 -9 3 -6 11 3 8 1 17 -5 21 -6
3 -11 13 -11 21 0 9 -7 22 -15 30 -8 9 -15 24 -15 35 0 10 -4 19 -10 19 -5 0
-10 8 -10 18 0 10 -4 22 -9 27 -6 6 -12 22 -15 37 -2 14 -9 35 -15 46 -6 11
-15 41 -21 68 -6 27 -13 56 -17 64 -3 8 -7 29 -7 45 -1 17 -5 35 -9 42 -4 7 0
24 9 38 17 25 31 35 18 13 -4 -7 3 -3 15 9 11 12 21 25 21 28 0 4 6 13 13 20
26 30 37 45 37 50 1 13 15 41 24 47 7 5 7 8 -1 8 -7 0 -13 4 -13 10 0 5 6 9
12 7 9 -1 12 12 12 40 -1 29 2 40 10 36 6 -4 5 1 -3 10 -9 12 -10 17 -2 17 7
0 10 4 7 9 -3 5 -8 26 -12 47 -3 22 -11 48 -17 59 -6 11 -10 21 -9 22 2 4 -11
38 -17 43 -4 3 -15 22 -26 43 -11 20 -28 40 -38 43 -10 3 -17 8 -14 10 8 8
-47 61 -71 68 -12 4 -20 12 -16 17 3 5 2 8 -3 7 -4 -1 -28 8 -52 21 -46 24
-72 32 -108 34 -13 1 -23 5 -23 10 0 4 -4 5 -10 2 -5 -3 -24 -8 -41 -10 l-32
-4 29 31 c16 17 37 41 47 52 10 12 24 28 31 36 20 23 38 60 29 60 -4 0 0 5 10
11 9 6 15 14 12 20 -4 5 -1 9 4 9 6 0 11 9 11 20 0 11 4 20 8 20 5 0 9 6 10
13 9 61 16 86 23 81 8 -4 14 44 10 70 -1 4 2 13 8 20 11 13 12 316 1 316 -4 0
-7 8 -7 18 0 55 -4 83 -11 78 -5 -3 -8 10 -7 29 0 19 -3 35 -8 35 -4 0 -6 4
-2 9 3 5 1 12 -4 16 -6 3 -8 12 -5 20 3 7 -1 24 -9 37 -9 13 -17 34 -19 48 -2
14 -9 31 -16 38 -7 8 -10 18 -7 23 4 5 1 9 -4 9 -6 0 -11 11 -11 25 0 14 -5
25 -12 25 -6 0 -8 3 -5 6 3 4 1 16 -5 28 -7 11 -11 24 -10 29 1 4 -2 7 -8 7
-5 0 -10 7 -10 15 0 8 -5 15 -10 15 -6 0 -9 3 -8 8 1 4 -3 17 -10 28 -6 12 -8
24 -5 28 3 3 1 6 -5 6 -7 0 -12 7 -12 15 0 8 -4 15 -10 15 -5 0 -12 11 -16 25
-3 14 -10 25 -15 25 -5 0 -9 6 -9 13 0 7 -9 20 -20 30 -12 10 -18 22 -15 27 3
6 2 10 -3 10 -5 0 -15 12 -23 27 -8 14 -26 39 -41 56 -16 16 -28 34 -28 39 0
6 -11 19 -26 30 -14 11 -23 22 -21 24 2 3 -18 27 -44 55 -27 28 -46 55 -43 60
3 5 -3 6 -12 2 -11 -4 -15 -2 -11 4 4 6 0 14 -9 17 -8 3 -12 11 -9 16 4 6 3 9
-2 8 -13 -4 -53 35 -46 45 3 6 1 7 -5 3 -7 -4 -12 -2 -12 3 0 6 -4 11 -9 11
-5 0 -29 18 -53 40 -71 66 -82 74 -111 89 -15 8 -27 18 -27 23 0 4 -7 8 -15 8
-7 0 -18 7 -23 17 -6 10 -16 14 -26 10 -10 -4 -16 -1 -16 9 0 8 -4 12 -10 9
-5 -3 -10 -2 -10 3 0 9 -21 19 -60 27 -8 2 -16 9 -18 15 -2 5 -8 8 -12 5 -5
-3 -1 9 8 27 9 18 18 44 20 58 2 13 7 27 11 30 4 3 8 16 9 30 0 14 2 41 5 60
2 19 0 47 -4 63 -5 17 -4 25 2 21 7 -4 8 6 4 28 -3 18 -7 48 -9 66 -1 19 -7
37 -12 40 -5 4 -9 12 -10 17 -1 24 -17 65 -25 65 -5 0 -9 5 -9 11 0 22 -77
111 -95 109 -3 0 -14 9 -25 20 -11 11 -29 20 -40 20 -11 0 -20 4 -20 8 0 5
-14 9 -31 10 -17 0 -38 7 -47 14 -12 9 -14 10 -8 1 8 -15 -5 -17 -19 -5 -6 5
-18 7 -28 5z m-313 -1021 c3 -5 -1 -9 -9 -9 -8 0 -12 4 -9 9 3 4 7 8 9 8 2 0
6 -4 9 -8z"/>
</g>
</svg>
